# xmcd CD database file
#
# Track frame offsets:
#	150
#	16714
#	33944
#	54225
#	77348
#	97608
#	116105
#	126167
#	146340
#	166269
#	181478
#
# Disc length: 2655 seconds
#
# Revision: 1
# Processed by: cddbd v1.5.2PL0 Copyright (c) Steve Scherf et al.
# Submitted via: CDex 1.70beta2
#
DISCID=770a5d0b
DTITLE=Oli Brown - Open road
DYEAR=2008
DGENRE=Blues
TTITLE0=Psycho (new version)
TTITLE1=Open road
TTITLE2=Stone cold
TTITLE3=Can't get next to you
TTITLE4=Shade of grey (new version)
TTITLE5=All the kings horses
TTITLE6=Black Betty
TTITLE7=Missing you (new version)
TTITLE8=New groove (new version)
TTITLE9=Played by the devil
TTITLE10=Complicated
EXTD=YEAR: 2008
EXTT0=
EXTT1=
EXTT2=
EXTT3=
EXTT4=
EXTT5=
EXTT6=
EXTT7=
EXTT8=
EXTT9=
EXTT10=
PLAYORDER=
